<svg width="22" height="19" viewBox="0 0 22 19" fill="none" xmlns="http://www.w3.org/2000/svg">
<path d="M6.75 14.7384L7.25 17.2069C7.91 17.931 8.59 17.931 9.25 17.2069L11.75 15.0675C11.94 14.8618 12.44 14.7384 12.75 14.7384H16.75C20.75 14.7384 20.75 13.0927 20.75 9.80131V5.68708C20.75 2.39569 20.75 0.75 16.75 0.75H5.25C1.25 0.75 0.75 2.39569 0.75 5.68708V9.80131C0.75 13.9155 0.75 14.7384 4.75 14.7384L6.34746 14.7288L6.75 14.7384ZM6.75 14.7384C6.34746 14.7288 5.5 14.7384 6.75 14.7384Z" stroke="#171717" stroke-width="1.5" stroke-miterlimit="10" stroke-linecap="round" stroke-linejoin="round"/>
<circle cx="6.75" cy="8.09" r="1" fill="#D9D9D9"/>
<circle cx="14.75" cy="8.09" r="1" fill="#D9D9D9"/>
<circle cx="10.75" cy="8.09" r="1" fill="#D9D9D9"/>
</svg>
